<svg width="20" height="20" viewBox="0 0 20 20" fill="none" xmlns="http://www.w3.org/2000/svg">
<path d="M6.93262 19.2965H4.66895C2.21349 19.2965 0.21582 17.2988 0.21582 14.8434V8.75745C0.21582 6.30199 2.21349 4.30432 4.66895 4.30432H14.7627C17.2181 4.30432 19.2158 6.30199 19.2158 8.75745V10.984C19.2158 11.3939 18.8835 11.7262 18.4736 11.7262C18.0637 11.7262 17.7314 11.3939 17.7314 10.984V8.75745C17.7314 7.12048 16.3997 5.7887 14.7627 5.7887H4.66895C3.03198 5.7887 1.7002 7.12048 1.7002 8.75745V14.8434C1.7002 16.4804 3.03198 17.8121 4.66895 17.8121H6.93262C7.34253 17.8121 7.6748 18.1444 7.6748 18.5543C7.6748 18.9642 7.34253 19.2965 6.93262 19.2965ZM19.2158 17.0328V15.0726C19.2158 13.8208 18.1974 12.8024 16.9456 12.8024H14.9854C14.5754 12.8024 14.2432 13.1346 14.2432 13.5446C14.2432 13.9545 14.5754 14.2867 14.9854 14.2867H16.9456C17.3789 14.2867 17.7314 14.6393 17.7314 15.0726V17.0328C17.7314 17.4427 18.0637 17.775 18.4736 17.775C18.8835 17.775 19.2158 17.4427 19.2158 17.0328ZM16.635 16.5802C16.9181 16.2838 16.9073 15.814 16.6109 15.5309C16.3144 15.2478 15.8446 15.2586 15.5615 15.5551C14.1917 16.9895 12.2686 17.8121 10.2853 17.8121H9.93848C9.52857 17.8121 9.19629 18.1444 9.19629 18.5543C9.19629 18.9642 9.52857 19.2965 9.93848 19.2965H10.2853C12.6722 19.2965 14.9866 18.3065 16.635 16.5802ZM5.07715 7.7926C4.56478 7.7926 4.14941 8.20797 4.14941 8.72034C4.14941 9.23271 4.56478 9.64807 5.07715 9.64807C5.58952 9.64807 6.00488 9.23271 6.00488 8.72034C6.00488 8.20797 5.58952 7.7926 5.07715 7.7926ZM8.26855 7.7926C7.75619 7.7926 7.34082 8.20797 7.34082 8.72034C7.34082 9.23271 7.75619 9.64807 8.26855 9.64807C8.78092 9.64807 9.19629 9.23271 9.19629 8.72034C9.19629 8.20797 8.78092 7.7926 8.26855 7.7926ZM11.46 7.7926C10.9476 7.7926 10.5322 8.20797 10.5322 8.72034C10.5322 9.23271 10.9476 9.64807 11.46 9.64807C11.9723 9.64807 12.3877 9.23271 12.3877 8.72034C12.3877 8.20797 11.9723 7.7926 11.46 7.7926ZM5.07715 10.984C4.56478 10.984 4.14941 11.3994 4.14941 11.9117C4.14941 12.4241 4.56478 12.8395 5.07715 12.8395C5.58952 12.8395 6.00488 12.4241 6.00488 11.9117C6.00488 11.3994 5.58952 10.984 5.07715 10.984ZM5.07715 14.1754C4.56478 14.1754 4.14941 14.5908 4.14941 15.1031C4.14941 15.6155 4.56478 16.0309 5.07715 16.0309C5.58952 16.0309 6.00488 15.6155 6.00488 15.1031C6.00488 14.5908 5.58952 14.1754 5.07715 14.1754ZM8.26855 10.984C7.75619 10.984 7.34082 11.3994 7.34082 11.9117C7.34082 12.4241 7.75619 12.8395 8.26855 12.8395C8.78092 12.8395 9.19629 12.4241 9.19629 11.9117C9.19629 11.3994 8.78092 10.984 8.26855 10.984ZM8.26855 14.1754C7.75619 14.1754 7.34082 14.5908 7.34082 15.1031C7.34082 15.6155 7.75619 16.0309 8.26855 16.0309C8.78092 16.0309 9.19629 15.6155 9.19629 15.1031C9.19629 14.5908 8.78092 14.1754 8.26855 14.1754ZM11.46 10.984C10.9476 10.984 10.5322 11.3994 10.5322 11.9117C10.5322 12.4241 10.9476 12.8395 11.46 12.8395C11.9723 12.8395 12.3877 12.4241 12.3877 11.9117C12.3877 11.3994 11.9723 10.984 11.46 10.984Z" fill="#F7F7F7"/>
<path d="M6.96973 3.26526C6.55982 3.26526 6.22754 2.93298 6.22754 2.52307C6.22754 2.11383 5.89459 1.78088 5.48535 1.78088C5.07611 1.78088 4.74316 2.11383 4.74316 2.52307C4.74316 2.93298 4.41089 3.26526 4.00098 3.26526C3.59107 3.26526 3.25879 2.93298 3.25879 2.52307C3.25879 1.29534 4.25762 0.296509 5.48535 0.296509C6.71308 0.296509 7.71191 1.29534 7.71191 2.52307C7.71191 2.93298 7.37964 3.26526 6.96973 3.26526ZM16.2471 2.52307C16.2471 1.29534 15.2482 0.296509 14.0205 0.296509C12.7928 0.296509 11.7939 1.29534 11.7939 2.52307C11.7939 2.93298 12.1262 3.26526 12.5361 3.26526C12.946 3.26526 13.2783 2.93298 13.2783 2.52307C13.2783 2.11383 13.6113 1.78088 14.0205 1.78088C14.4298 1.78088 14.7627 2.11383 14.7627 2.52307C14.7627 2.93298 15.095 3.26526 15.5049 3.26526C15.9148 3.26526 16.2471 2.93298 16.2471 2.52307ZM14.6514 7.7926C14.139 7.7926 13.7236 8.20797 13.7236 8.72034C13.7236 9.23271 14.139 9.64807 14.6514 9.64807C15.1637 9.64807 15.5791 9.23271 15.5791 8.72034C15.5791 8.20797 15.1637 7.7926 14.6514 7.7926Z" fill="#F80D38"/>
</svg>
