<svg width="16" height="15" viewBox="0 0 16 15" fill="none" xmlns="http://www.w3.org/2000/svg">
<path d="M11.5354 14.3331H3.56665C1.62813 14.3331 0.0510254 12.8612 0.0510254 11.0519V6.43079C0.0510254 4.6215 1.62813 3.14954 3.56665 3.14954H5.9104C6.23401 3.14954 6.49634 3.39437 6.49634 3.69641C6.49634 3.99845 6.23401 4.24329 5.9104 4.24329H3.56665C2.27431 4.24329 1.2229 5.2246 1.2229 6.43079V11.0519C1.2229 12.2581 2.27431 13.2394 3.56665 13.2394H11.5354C12.8277 13.2394 13.8792 12.2581 13.8792 11.0519V7.90735C13.8792 7.60531 14.1415 7.36047 14.4651 7.36047C14.7887 7.36047 15.051 7.60531 15.051 7.90735V11.0519C15.051 12.8612 13.4739 14.3331 11.5354 14.3331ZM15.051 3.77844C15.051 1.87868 13.3951 0.33313 11.3596 0.33313C9.32416 0.33313 7.66821 1.87868 7.66821 3.77844C7.66821 5.6782 9.32416 7.22375 11.3596 7.22375C13.3951 7.22375 15.051 5.6782 15.051 3.77844ZM13.8792 3.77844C13.8792 5.07508 12.7489 6.13 11.3596 6.13C9.97036 6.13 8.84009 5.07508 8.84009 3.77844C8.84009 2.4818 9.97036 1.42688 11.3596 1.42688C12.7489 1.42688 13.8792 2.4818 13.8792 3.77844Z" fill="#F7F7F7"/>
<path d="M7.55085 10.5029C6.79865 10.5029 6.04657 10.2795 5.419 9.83276L2.62607 7.85047C2.3685 7.66765 2.31846 7.32454 2.51434 7.08414C2.71024 6.8437 3.07783 6.797 3.33541 6.97985L6.12901 8.9626C6.96655 9.55883 8.13556 9.5588 8.97242 8.96309L9.94898 8.26594C10.206 8.08246 10.5738 8.12818 10.7704 8.36806C10.967 8.60795 10.918 8.9512 10.6609 9.13467L9.68375 9.83227C9.05569 10.2794 8.30322 10.5029 7.55085 10.5029ZM11.9456 4.6261V2.93079C11.9456 2.62875 11.6833 2.38391 11.3597 2.38391H10.7737C10.4501 2.38391 10.1878 2.62875 10.1878 2.93079C10.1878 3.23283 10.4501 3.47766 10.7737 3.47766V4.6261C10.7737 4.92814 11.036 5.17297 11.3597 5.17297C11.6833 5.17297 11.9456 4.92814 11.9456 4.6261Z" fill="#F80D38"/>
</svg>
