<svg width="14" height="18" viewBox="0 0 14 18" fill="none" xmlns="http://www.w3.org/2000/svg">
<path d="M12.9132 17.5995C12.5474 17.5995 12.2508 17.3029 12.2508 16.9371C12.2508 14.3438 10.141 12.2341 7.54778 12.2341H6.55419C3.96093 12.2341 1.85116 14.3438 1.85116 16.9371C1.85116 17.3029 1.55461 17.5995 1.18876 17.5995C0.822923 17.5995 0.526367 17.3029 0.526367 16.9371C0.526367 13.6133 3.23044 10.9093 6.55419 10.9093H7.54778C10.8715 10.9093 13.5756 13.6133 13.5756 16.9371C13.5756 17.3029 13.279 17.5995 12.9132 17.5995ZM11.4559 5.11328C11.4559 2.64786 9.45016 0.64209 6.98475 0.64209C4.51933 0.64209 2.51356 2.64786 2.51356 5.11328C2.51356 7.57869 4.51933 9.58446 6.98475 9.58446C9.45016 9.58446 11.4559 7.57869 11.4559 5.11328ZM10.1311 5.11328C10.1311 6.84819 8.71967 8.25966 6.98475 8.25966C5.24983 8.25966 3.83836 6.84819 3.83836 5.11328C3.83836 3.37836 5.24983 1.96689 6.98475 1.96689C8.71967 1.96689 10.1311 3.37836 10.1311 5.11328Z" fill="#F7F7F7"/>
<path d="M7.01796 17.5995C6.9031 17.5995 6.78827 17.5696 6.68553 17.51L4.00282 15.9534C3.84852 15.8638 3.73687 15.7159 3.69309 15.5429C3.64933 15.37 3.67719 15.1867 3.77032 15.0346L4.76392 13.4117C4.95492 13.0997 5.36272 13.0016 5.67471 13.1926C5.9867 13.3837 6.08477 13.7914 5.89374 14.1034L5.25429 15.1479L7.02193 16.1736L8.83521 15.1468L8.1804 14.1117C7.98483 13.8026 8.07687 13.3934 8.38604 13.1978C8.69515 13.0022 9.10438 13.0943 9.29995 13.4034L10.3267 15.0263C10.4236 15.1795 10.4535 15.3658 10.4094 15.5416C10.3653 15.7175 10.2511 15.8675 10.0933 15.9569L7.34432 17.5135C7.24307 17.5708 7.13047 17.5995 7.01796 17.5995Z" fill="#F80D38"/>
</svg>
