<svg width="18" height="15" viewBox="0 0 18 15" fill="none" xmlns="http://www.w3.org/2000/svg">
<path d="M13.5666 11.9958H4.5347C2.33811 11.9958 0.551025 10.4389 0.551025 8.5253V3.78089C0.551025 1.86694 2.33841 0.309814 4.53539 0.309814H11.1096C11.4764 0.309814 11.7737 0.568814 11.7737 0.888327C11.7737 1.20784 11.4764 1.46684 11.1096 1.46684H4.53539C3.07074 1.46684 1.87915 2.50492 1.87915 3.78089V8.5253C1.87915 9.80092 3.07044 10.8387 4.5347 10.8387H13.5666C15.0313 10.8387 16.2229 9.80066 16.2229 8.52469V5.92138C16.2229 5.60187 16.5202 5.34287 16.8869 5.34287C17.2537 5.34287 17.551 5.60187 17.551 5.92138V8.52469C17.551 10.4386 15.7636 11.9958 13.5666 11.9958ZM12.9026 13.7313C12.9026 13.4118 12.6053 13.1528 12.2385 13.1528H5.86352C5.49676 13.1528 5.19946 13.4118 5.19946 13.7313C5.19946 14.0508 5.49676 14.3098 5.86352 14.3098H12.2385C12.6053 14.3098 12.9026 14.0508 12.9026 13.7313Z" fill="#F7F7F7"/>
<path d="M16.8869 4.18585C16.5201 4.18585 16.2228 3.92685 16.2228 3.60733V2.0794C16.2228 1.74163 15.9074 1.46684 15.5197 1.46684H13.7658C13.399 1.46684 13.1017 1.20784 13.1017 0.888327C13.1017 0.568814 13.399 0.309814 13.7658 0.309814H15.5197C16.6397 0.309814 17.5509 1.10362 17.5509 2.0794V3.60733C17.5509 3.92685 17.2536 4.18585 16.8869 4.18585ZM15.2418 3.25453C15.4951 3.02347 15.4854 2.65727 15.2202 2.43663C14.9549 2.21598 14.5346 2.2244 14.2813 2.45546C12.6696 3.92572 10.5291 4.73543 8.25406 4.73543H7.86157C7.49481 4.73543 7.19751 4.99443 7.19751 5.31395C7.19751 5.63346 7.49481 5.89246 7.86157 5.89246H8.25406C10.8955 5.89246 13.3771 4.95562 15.2418 3.25453Z" fill="#F80D38"/>
</svg>
