<svg width="20" height="20" viewBox="0 0 20 20" fill="none" xmlns="http://www.w3.org/2000/svg">
<path d="M15.0979 19.451H5.00415C2.5487 19.451 0.551025 17.4534 0.551025 14.9979V4.90417C0.551025 2.44872 2.5487 0.45105 5.00415 0.45105H15.0979C17.5534 0.45105 19.551 2.44872 19.551 4.90417V14.9979C19.551 17.4534 17.5534 19.451 15.0979 19.451ZM5.00415 1.93542C3.36718 1.93542 2.0354 3.26721 2.0354 4.90417V14.9979C2.0354 16.6349 3.36718 17.9667 5.00415 17.9667H15.0979C16.7349 17.9667 18.0667 16.6349 18.0667 14.9979V4.90417C18.0667 3.26721 16.7349 1.93542 15.0979 1.93542H5.00415ZM8.3811 4.1991C8.3811 3.78919 8.04883 3.45691 7.63892 3.45691H4.52173C4.11182 3.45691 3.77954 3.78919 3.77954 4.1991C3.77954 4.60901 4.11182 4.94128 4.52173 4.94128H7.63892C8.04883 4.94128 8.3811 4.60901 8.3811 4.1991ZM15.1721 12.8456C15.1721 12.4357 14.8398 12.1034 14.4299 12.1034H8.23267C7.82276 12.1034 7.49048 12.4357 7.49048 12.8456C7.49048 13.2555 7.82276 13.5878 8.23267 13.5878H14.4299C14.8398 13.5878 15.1721 13.2555 15.1721 12.8456ZM16.1741 15.7401C16.1741 15.3302 15.8418 14.9979 15.4319 14.9979H13.7991C13.3892 14.9979 13.0569 15.3302 13.0569 15.7401C13.0569 16.15 13.3892 16.4823 13.7991 16.4823H15.4319C15.8418 16.4823 16.1741 16.15 16.1741 15.7401Z" fill="#F7F7F7"/>
<path d="M15.5432 10.6932H10.3108C9.90088 10.6932 9.5686 10.361 9.5686 9.95105C9.5686 9.54114 9.90088 9.20886 10.3108 9.20886H15.5432C15.9531 9.20886 16.2854 9.54114 16.2854 9.95105C16.2854 10.361 15.9531 10.6932 15.5432 10.6932ZM13.6877 7.09363C13.6877 6.68372 13.3555 6.35144 12.9456 6.35144H6.0061C5.59619 6.35144 5.26392 6.68372 5.26392 7.09363C5.26392 7.50354 5.59619 7.83582 6.0061 7.83582H12.9456C13.3555 7.83582 13.6877 7.50354 13.6877 7.09363Z" fill="#F80D38"/>
</svg>
