<svg width="17" height="17" viewBox="0 0 17 17" fill="none" xmlns="http://www.w3.org/2000/svg">
<path d="M12.2698 11.425C10.8051 11.425 9.61353 10.2335 9.61353 8.7688C9.61353 7.30414 10.8051 6.11255 12.2698 6.11255C13.7344 6.11255 14.926 7.30414 14.926 8.7688C14.926 10.2335 13.7344 11.425 12.2698 11.425ZM12.2698 7.36255C11.4944 7.36255 10.8635 7.99339 10.8635 8.7688C10.8635 9.5442 11.4944 10.175 12.2698 10.175C13.0452 10.175 13.676 9.5442 13.676 8.7688C13.676 7.99339 13.0452 7.36255 12.2698 7.36255ZM7.30103 15.8625C7.30103 15.5174 7.02121 15.2375 6.67603 15.2375H3.80037C2.42224 15.2375 1.30103 14.1163 1.30103 12.7382V4.23689C1.30103 2.85877 2.42224 1.73755 3.80037 1.73755H9.55231C10.9305 1.73755 12.0517 2.85877 12.0517 4.23689C12.0517 4.58208 12.3315 4.86189 12.6767 4.86189C13.0218 4.86189 13.3017 4.58208 13.3017 4.23689C13.3017 2.16952 11.6197 0.487549 9.55168 0.487549H3.80037C1.73299 0.487549 0.0510254 2.16952 0.0510254 4.23689V12.7382C0.0510254 14.8056 1.73299 16.4875 3.80037 16.4875H6.67603C7.02121 16.4875 7.30103 16.2077 7.30103 15.8625ZM8.33228 7.5813C8.33228 7.23611 8.05246 6.9563 7.70728 6.9563H4.64478C4.29959 6.9563 4.01978 7.23611 4.01978 7.5813C4.01978 7.92649 4.29959 8.2063 4.64478 8.2063H7.70728C8.05246 8.2063 8.33228 7.92649 8.33228 7.5813ZM8.33228 12.3625C8.33228 12.0174 8.05246 11.7375 7.70728 11.7375H4.64478C4.29959 11.7375 4.01978 12.0174 4.01978 12.3625C4.01978 12.7077 4.29959 12.9875 4.64478 12.9875H7.70728C8.05246 12.9875 8.33228 12.7077 8.33228 12.3625ZM8.33228 9.9563C8.33228 9.61111 8.05246 9.3313 7.70728 9.3313H4.64478C4.29959 9.3313 4.01978 9.61111 4.01978 9.9563C4.01978 10.3015 4.29959 10.5813 4.64478 10.5813H7.70728C8.05246 10.5813 8.33228 10.3015 8.33228 9.9563Z" fill="#F7F7F7"/>
<path d="M15.426 16.4875C15.0808 16.4875 14.801 16.2077 14.801 15.8625C14.801 14.6219 13.7983 13.6125 12.5659 13.6125H12.0362C10.8037 13.6125 9.80103 14.6219 9.80103 15.8625C9.80103 16.2077 9.52121 16.4875 9.17603 16.4875C8.83084 16.4875 8.55103 16.2077 8.55103 15.8625C8.55103 13.9326 10.1145 12.3625 12.0362 12.3625H12.5658C14.4876 12.3625 16.051 13.9326 16.051 15.8625C16.051 16.2077 15.7712 16.4875 15.426 16.4875ZM9.58228 5.17505C9.58228 4.82986 9.30246 4.55005 8.95728 4.55005H4.64478C4.29959 4.55005 4.01978 4.82986 4.01978 5.17505C4.01978 5.52024 4.29959 5.80005 4.64478 5.80005H8.95728C9.30246 5.80005 9.58228 5.52024 9.58228 5.17505Z" fill="#F80D38"/>
</svg>
