<svg width="16" height="15" viewBox="0 0 16 15" fill="none" xmlns="http://www.w3.org/2000/svg">
<path d="M6.73267 11.9182C3.3241 11.9182 0.551025 9.33198 0.551025 6.15307C0.551025 2.97416 3.3241 0.387939 6.73267 0.387939C10.1413 0.387939 12.9143 2.97416 12.9143 6.15307C12.9143 9.33198 10.1412 11.9182 6.73267 11.9182ZM6.73267 1.48085C3.97027 1.48085 1.7229 3.57679 1.7229 6.15307C1.7229 8.72934 3.97027 10.8253 6.73267 10.8253C9.49508 10.8253 11.7424 8.72934 11.7424 6.15307C11.7424 3.57679 9.49505 1.48085 6.73267 1.48085Z" fill="#F7F7F7"/>
<path d="M15.3796 14.2279C15.2652 14.3346 15.1153 14.3879 14.9653 14.3879C14.8153 14.3879 14.6654 14.3346 14.551 14.2279L11.9289 11.7825C11.7001 11.5691 11.7001 11.2231 11.9289 11.0097C12.1577 10.7963 12.5287 10.7963 12.7575 11.0097L15.3796 13.4551C15.6084 13.6685 15.6084 14.0145 15.3796 14.2279ZM9.52455 5.20619L9.1342 5.42461C9.2107 5.64751 9.25239 5.88481 9.25239 6.13107C9.25239 6.37733 9.2107 6.61463 9.1342 6.83753L9.52453 7.05595C9.80203 7.21123 9.892 7.54689 9.7255 7.80567C9.61564 7.97643 9.42155 8.07105 9.2225 8.07105C9.11991 8.07105 9.01599 8.04592 8.9216 7.9931L8.52404 7.77064C8.20537 8.06848 7.80055 8.28576 7.34803 8.38794V8.86333C7.34803 9.16514 7.0857 9.40979 6.76209 9.40979C6.43848 9.40979 6.17615 9.16514 6.17615 8.86333V8.38794C5.71332 8.28341 5.30073 8.05813 4.97885 7.74979L4.54402 7.9931C4.44966 8.04592 4.34571 8.07105 4.24311 8.07105C4.04404 8.07105 3.84998 7.97643 3.74011 7.80567C3.57362 7.54689 3.66362 7.2112 3.94109 7.05595L4.38063 6.80999C4.31006 6.59512 4.27182 6.3672 4.27182 6.13107C4.27182 5.89495 4.31006 5.66702 4.38063 5.45215L3.94106 5.20619C3.66356 5.05092 3.57359 4.71525 3.74009 4.45645C3.90661 4.19765 4.26649 4.11374 4.54399 4.26902L4.97882 4.51233C5.3007 4.20396 5.71329 3.97871 6.17612 3.87417V3.39878C6.17612 3.09697 6.43845 2.85233 6.76206 2.85233C7.08568 2.85233 7.348 3.09697 7.348 3.39878V3.87417C7.80052 3.97636 8.20535 4.19363 8.52401 4.49148L8.92154 4.26902C9.19907 4.11374 9.55895 4.19768 9.72544 4.45645C9.89203 4.71525 9.80203 5.05092 9.52455 5.20619ZM8.08051 6.13107C8.08051 5.45311 7.48909 4.90154 6.76215 4.90154C6.03521 4.90154 5.44379 5.45311 5.44379 6.13107C5.44379 6.80904 6.03521 7.3606 6.76215 7.3606C7.48909 7.3606 8.08051 6.80904 8.08051 6.13107Z" fill="#F80D38"/>
</svg>
