<svg width="29" height="33" viewBox="0 0 29 33" fill="none" xmlns="http://www.w3.org/2000/svg">
<rect x="0.549805" y="0.0250244" width="27.6407" height="32.3192" rx="5" fill="#100DB1"/>
<path d="M18.8409 17.6841C18.5256 17.3558 18.1453 17.1803 17.7423 17.1803C17.3425 17.1803 16.9589 17.3526 16.6307 17.6808L15.6036 18.7047C15.5191 18.6592 15.4346 18.6169 15.3533 18.5747C15.2363 18.5162 15.1258 18.4609 15.0315 18.4024C14.0694 17.7914 13.1951 16.995 12.3565 15.9647C11.9502 15.4511 11.6772 15.0189 11.479 14.5801C11.7455 14.3363 11.9925 14.0828 12.233 13.839C12.324 13.748 12.415 13.6537 12.506 13.5627C13.1886 12.8802 13.1886 11.9961 12.506 11.3135L11.6187 10.4262C11.518 10.3254 11.414 10.2214 11.3164 10.1174C11.1214 9.91589 10.9167 9.70788 10.7054 9.51286C10.3901 9.20083 10.0131 9.03506 9.61654 9.03506C9.22 9.03506 8.83647 9.20083 8.51144 9.51286C8.50819 9.51611 8.50819 9.51611 8.50494 9.51936L7.39984 10.6342C6.9838 11.0502 6.74653 11.5573 6.69453 12.1456C6.61652 13.0947 6.89604 13.9788 7.11056 14.5573C7.63711 15.9777 8.42368 17.2941 9.59704 18.7047C11.0207 20.4046 12.7336 21.747 14.6902 22.6928C15.4378 23.0471 16.4357 23.4664 17.5505 23.5379C17.6188 23.5411 17.6903 23.5444 17.7553 23.5444C18.5061 23.5444 19.1366 23.2746 19.6307 22.7383C19.6339 22.7318 19.6404 22.7285 19.6437 22.722C19.8127 22.5173 20.0077 22.332 20.2125 22.1337C20.3523 22.0005 20.4953 21.8607 20.635 21.7145C20.9568 21.3797 21.1258 20.9896 21.1258 20.5899C21.1258 20.1868 20.9536 19.8 20.6253 19.475L18.8409 17.6841ZM20.0045 21.1066C20.0012 21.1066 20.0012 21.1099 20.0045 21.1066C19.8777 21.2432 19.7477 21.3667 19.6079 21.5032C19.3967 21.7047 19.1821 21.916 18.9806 22.1532C18.6524 22.5043 18.2656 22.67 17.7585 22.67C17.7098 22.67 17.6578 22.67 17.609 22.6668C16.6437 22.605 15.7466 22.228 15.0738 21.9062C13.2341 21.0156 11.6187 19.7513 10.2763 18.1489C9.168 16.813 8.42693 15.5779 7.93614 14.2518C7.63386 13.4425 7.52335 12.8119 7.57211 12.2171C7.60461 11.8368 7.75087 11.5215 8.02065 11.2518L9.129 10.1434C9.28826 9.9939 9.45728 9.91264 9.62304 9.91264C9.82781 9.91264 9.99357 10.0362 10.0976 10.1402C10.1008 10.1434 10.1041 10.1467 10.1073 10.1499C10.3056 10.3352 10.4941 10.5269 10.6924 10.7317C10.7931 10.8357 10.8972 10.9397 11.0012 11.047L11.8885 11.9343C12.233 12.2789 12.233 12.5974 11.8885 12.9419C11.7942 13.0362 11.7032 13.1304 11.609 13.2214C11.3359 13.501 11.0759 13.761 10.7931 14.0145C10.7866 14.021 10.7801 14.0243 10.7769 14.0308C10.4974 14.3103 10.5494 14.5833 10.6079 14.7686C10.6111 14.7783 10.6144 14.7881 10.6176 14.7978C10.8484 15.3569 11.1734 15.8834 11.6675 16.5107L11.6707 16.514C12.5678 17.6191 13.5136 18.4804 14.557 19.1402C14.6902 19.2247 14.8268 19.293 14.9568 19.358C15.0738 19.4165 15.1843 19.4718 15.2785 19.5303C15.2915 19.5368 15.3046 19.5465 15.3176 19.553C15.4281 19.6083 15.5321 19.6343 15.6393 19.6343C15.9091 19.6343 16.0781 19.4653 16.1334 19.41L17.245 18.2984C17.3555 18.1879 17.531 18.0546 17.7358 18.0546C17.9373 18.0546 18.1031 18.1814 18.2038 18.2919C18.2071 18.2951 18.2071 18.2951 18.2103 18.2984L20.0012 20.0893C20.336 20.4208 20.336 20.7621 20.0045 21.1066Z" fill="white"/>
<path d="M14.9925 11.8075C15.8441 11.9505 16.6177 12.3536 17.2352 12.9711C17.8528 13.5887 18.2526 14.3623 18.3988 15.2138C18.4346 15.4283 18.6199 15.5779 18.8311 15.5779C18.8571 15.5779 18.8799 15.5746 18.9059 15.5714C19.1464 15.5324 19.3057 15.3048 19.2667 15.0643C19.0911 14.034 18.6036 13.0946 17.8593 12.3503C17.115 11.606 16.1756 11.1185 15.1453 10.9429C14.9048 10.9039 14.6805 11.0632 14.6382 11.3005C14.596 11.5378 14.752 11.7685 14.9925 11.8075Z" fill="white"/>
<path d="M22.0521 14.9376C21.7629 13.2409 20.9633 11.697 19.7347 10.4684C18.5061 9.23982 16.9622 8.44025 15.2655 8.15098C15.0283 8.10872 14.804 8.27124 14.7617 8.50851C14.7227 8.74903 14.882 8.9733 15.1225 9.01555C16.6371 9.27233 18.0185 9.99064 19.1171 11.086C20.2157 12.1846 20.9308 13.566 21.1876 15.0806C21.2233 15.2951 21.4086 15.4446 21.6198 15.4446C21.6458 15.4446 21.6686 15.4414 21.6946 15.4381C21.9319 15.4024 22.0944 15.1749 22.0521 14.9376Z" fill="white"/>
</svg>
