<svg width="38" height="47" viewBox="0 0 38 47" fill="none" xmlns="http://www.w3.org/2000/svg">
<path d="M2.01099 8.30322C8.11152 8.30322 14.0556 6.26979 18.7483 2.51561L19.2176 2.04626L19.6869 2.51561C24.3796 6.26979 30.3237 8.30322 36.4242 8.30322C34.3907 14.5602 33.2958 19.2529 33.2958 22.3814C33.2958 25.5099 34.3907 27.0741 36.4242 27.0741V31.7668C25.0053 41.1522 19.2176 45.845 19.2176 45.845C19.2176 45.845 13.4299 41.1522 2.01099 31.7668V27.0741C4.0445 25.8227 5.13946 24.2585 5.13946 22.3814C5.13946 18.0015 4.0445 13.3088 2.01099 8.30322Z" fill="url(#paint0_linear_22_927)"/>
<path fill-rule="evenodd" clip-rule="evenodd" d="M19.2175 0.922852C19.5155 0.922852 19.8013 1.04124 20.0119 1.25195L20.4367 1.67678C24.9162 5.24188 30.5911 7.17981 36.4241 7.17981C36.7838 7.17981 37.1217 7.35198 37.333 7.64293C37.5444 7.93389 37.6037 8.30845 37.4926 8.65046C35.4593 14.9066 34.4191 19.4484 34.4191 22.3814C34.4191 23.8468 34.6812 24.7579 35.0285 25.2724C35.3268 25.7143 35.742 25.9507 36.4241 25.9507C37.0446 25.9507 37.5476 26.4537 37.5476 27.0741V31.7668C37.5476 32.1029 37.3971 32.4213 37.1375 32.6347C31.427 37.3282 27.1244 40.8486 24.2491 43.1957C22.8115 44.3693 21.7307 45.2496 21.0092 45.8365C20.6485 46.13 20.3776 46.3502 20.1968 46.497L19.9261 46.7167L19.9251 46.7175L19.2175 45.845L18.5099 46.7175L18.5089 46.7167L18.2383 46.497C18.0575 46.3502 17.7865 46.13 17.4258 45.8365C16.7043 45.2496 15.6235 44.3693 14.1859 43.1957C11.3106 40.8486 7.00799 37.3282 1.29754 32.6347C1.03791 32.4213 0.887456 32.1029 0.887456 31.7668V27.0741C0.887456 26.684 1.08985 26.3218 1.4221 26.1173C3.25549 24.9891 4.01593 23.735 4.01593 22.3814C4.01593 18.1866 2.9665 13.6404 0.970065 8.72606C0.829358 8.3797 0.870163 7.98604 1.07892 7.67591C1.28768 7.36578 1.63703 7.17981 2.01088 7.17981C7.84391 7.17981 13.5188 5.24188 17.9983 1.67677L18.4231 1.25195C18.6338 1.04124 18.9195 0.922852 19.2175 0.922852ZM19.2175 3.57677C14.7791 7.04718 9.30942 9.057 3.63678 9.38035C5.33607 13.9288 6.26278 18.2665 6.26278 22.3814C6.26278 24.5845 5.05884 26.3443 3.1343 27.6814V31.236C8.63908 35.7597 12.8026 39.1661 15.6067 41.4552C17.0434 42.6279 18.1232 43.5074 18.8437 44.0936C18.9815 44.2057 19.1061 44.307 19.2175 44.3976C19.329 44.307 19.4536 44.2057 19.5913 44.0936C20.3118 43.5074 21.3916 42.6279 22.8283 41.4552C25.6324 39.1661 29.7959 35.7597 35.3007 31.236V28.0582C34.4373 27.8312 33.7034 27.3253 33.1662 26.5294C32.4576 25.4797 32.1722 24.0444 32.1722 22.3814C32.1722 19.3151 33.1506 14.9557 34.8988 9.3859C29.1902 9.08069 23.6821 7.06767 19.2175 3.57677ZM19.2175 45.845L18.5099 46.7175C18.9223 47.0519 19.5127 47.0519 19.9251 46.7175L19.2175 45.845Z" fill="#09075F"/>
<path d="M16.5969 13.1556H21.8556V21.2018H16.5969V13.1556Z" fill="white"/>
<path d="M8.55078 26.4606L8.55078 21.2019L16.5969 21.2019L16.5969 26.4606L8.55078 26.4606Z" fill="#F80D38"/>
<path d="M29.8843 26.4114L29.8843 21.1527L21.8381 21.1527L21.8381 26.4114L29.8843 26.4114Z" fill="#F80D38"/>
<path d="M21.8555 34.7356L16.5968 34.7356L16.5968 26.4606L21.8555 26.4606L21.8555 34.7356Z" fill="white"/>
<defs>
<linearGradient id="paint0_linear_22_927" x1="19.2176" y1="2.04626" x2="19.2176" y2="45.845" gradientUnits="userSpaceOnUse">
<stop stop-color="#100DB4"/>
<stop offset="1" stop-color="#070641"/>
</linearGradient>
</defs>
</svg>
